<svg xmlns="http://www.w3.org/2000/svg" xmlns:xlink="http://www.w3.org/1999/xlink" width="24" height="24">
  <defs>
    <clipPath id="b">
      <path d="M0 0h24v24H0z"/>
    </clipPath>
    <clipPath id="c">
      <path d="M0 0h24v24H0z"/>
    </clipPath>
    <clipPath id="d">
      <path d="M0 0h24v24H0z"/>
    </clipPath>
    <clipPath id="e">
      <path d="M0 0h24v24H0z"/>
    </clipPath>
    <clipPath id="f">
      <path d="M0 0h24v24H0z"/>
    </clipPath>
    <clipPath id="g">
      <path d="M0 0h24v24H0z"/>
    </clipPath>
    <clipPath id="h">
      <path d="M0 0h24v24H0z"/>
    </clipPath>
    <clipPath id="i">
      <path d="M0 0h24v24H0z"/>
    </clipPath>
    <mask id="k">
      <g filter="url(#a)">
        <path d="M0 0h24v24H0z" style="fill:#000;fill-opacity:.101961;stroke:none"/>
      </g>
    </mask>
    <mask id="m">
      <g filter="url(#a)">
        <path d="M0 0h24v24H0z" style="fill:#000;fill-opacity:.2;stroke:none"/>
      </g>
    </mask>
    <mask id="o">
      <g filter="url(#a)">
        <path d="M0 0h24v24H0z" style="fill:#000;fill-opacity:.2;stroke:none"/>
      </g>
    </mask>
    <mask id="q">
      <g filter="url(#a)">
        <path d="M0 0h24v24H0z" style="fill:#000;fill-opacity:.2;stroke:none"/>
      </g>
    </mask>
    <mask id="s">
      <g filter="url(#a)">
        <path d="M0 0h24v24H0z" style="fill:#000;fill-opacity:.101961;stroke:none"/>
      </g>
    </mask>
    <mask id="u">
      <g filter="url(#a)">
        <path d="M0 0h24v24H0z" style="fill:#000;fill-opacity:.2;stroke:none"/>
      </g>
    </mask>
    <mask id="w">
      <g filter="url(#a)">
        <path d="M0 0h24v24H0z" style="fill:#000;fill-opacity:.2;stroke:none"/>
      </g>
    </mask>
    <mask id="y">
      <g filter="url(#a)">
        <path d="M0 0h24v24H0z" style="fill:#000;fill-opacity:.2;stroke:none"/>
      </g>
    </mask>
    <g id="j" clip-path="url(#b)">
      <path d="M13.395 9v9.703c-.004.445-.254.844-.637 1.012a.928.928 0 0 1-.383.086H7.191c-.074-.2-.14-.399-.195-.602a7.776 7.776 0 0 1-.297-2.125v-6.922c-.015-.62.442-1.136 1.02-1.152Zm0 0" style="stroke:none;fill-rule:nonzero;fill:#000;fill-opacity:1"/>
    </g>
    <g id="l" clip-path="url(#c)">
      <path d="M12.836 9v10.3c0 .145-.027.286-.078.415-.156.414-.528.683-.942.683H7.453a6.753 6.753 0 0 1-.457-1.199 7.776 7.776 0 0 1-.297-2.125v-6.922c-.015-.62.442-1.136 1.02-1.152Zm0 0" style="stroke:none;fill-rule:nonzero;fill:#000;fill-opacity:1"/>
    </g>
    <g id="n" clip-path="url(#d)">
      <path d="M12.836 9v9.102c-.004.605-.457 1.093-1.02 1.097h-4.82a7.776 7.776 0 0 1-.297-2.125v-6.922c-.015-.62.442-1.136 1.02-1.152Zm0 0" style="stroke:none;fill-rule:nonzero;fill:#000;fill-opacity:1"/>
    </g>
    <g id="p" clip-path="url(#e)">
      <path d="M12.277 9v9.102c-.004.605-.457 1.093-1.02 1.097h-4.26a7.776 7.776 0 0 1-.298-2.125v-6.922c-.015-.62.442-1.136 1.02-1.152Zm0 0" style="stroke:none;fill-rule:nonzero;fill:#000;fill-opacity:1"/>
    </g>
    <g id="r" clip-path="url(#f)">
      <path d="M13.395 5.898V7.79c-.094.004-.184.012-.278.012-.097 0-.183-.008-.281-.012a3.043 3.043 0 0 1-.559-.098c-1.129-.289-2.062-1.14-2.507-2.293a3.512 3.512 0 0 1-.18-.597h2.785c.563 0 1.02.492 1.02 1.097Zm0 0" style="stroke:none;fill-rule:nonzero;fill:#000;fill-opacity:1"/>
    </g>
    <g id="t" clip-path="url(#g)">
      <path d="M12.836 6.496V7.79a3.043 3.043 0 0 1-.559-.098c-1.129-.289-2.062-1.14-2.507-2.293h2.046c.563.004 1.02.493 1.02 1.098Zm0 0" style="stroke:none;fill-rule:nonzero;fill:#000;fill-opacity:1"/>
    </g>
    <g id="v" clip-path="url(#h)">
      <path d="M12.836 6.496V7.79a3.043 3.043 0 0 1-.559-.098c-1.129-.289-2.062-1.14-2.507-2.293h2.046c.563.004 1.02.493 1.02 1.098Zm0 0" style="stroke:none;fill-rule:nonzero;fill:#000;fill-opacity:1"/>
    </g>
    <g id="x" clip-path="url(#i)">
      <path d="M12.277 6.496v1.195c-1.129-.289-2.062-1.14-2.507-2.293h1.488c.562.004 1.02.493 1.02 1.098Zm0 0" style="stroke:none;fill-rule:nonzero;fill:#000;fill-opacity:1"/>
    </g>
    <linearGradient id="z" x1="198.099" x2="942.234" y1="1683.073" y2="394.261" gradientTransform="matrix(.01077 0 0 -.01158 .003 24.023)" gradientUnits="userSpaceOnUse">
      <stop offset="0" style="stop-color:#5a62c3;stop-opacity:1"/>
      <stop offset=".5" style="stop-color:#4d55bd;stop-opacity:1"/>
      <stop offset="1" style="stop-color:#3940ab;stop-opacity:1"/>
    </linearGradient>
    <filter id="a" width="100%" height="100%" x="0%" y="0%" filterUnits="objectBoundingBox">
      <feColorMatrix in="SourceGraphic" values="0 0 0 0 1 0 0 0 0 1 0 0 0 0 1 0 0 0 1 0"/>
    </filter>
  </defs>
  <path d="M16.738 9h6.2c.585 0 1.058.512 1.058 1.14v6.07c0 2.313-1.742 4.188-3.894 4.188h-.02c-2.152 0-3.898-1.875-3.898-4.187V9.598c0-.332.25-.598.554-.598ZM23.438 5.102c0 1.488-1.122 2.699-2.508 2.699-1.387 0-2.512-1.211-2.512-2.7 0-1.492 1.125-2.703 2.512-2.703 1.386 0 2.508 1.211 2.508 2.704Zm0 0" style="stroke:none;fill-rule:nonzero;fill:#5059c9;fill-opacity:1"/>
  <path d="M16.742 3.898c0 2.157-1.62 3.903-3.625 3.903-2.004 0-3.629-1.746-3.629-3.903C9.488 1.746 11.113 0 13.118 0c2.003 0 3.624 1.746 3.624 3.898ZM17.953 9H7.723c-.578.016-1.04.531-1.024 1.152v6.926C6.617 20.813 9.363 23.91 12.836 24c3.473-.09 6.219-3.188 6.14-6.922v-6.926c.012-.62-.445-1.136-1.023-1.152Zm0 0" style="stroke:none;fill-rule:nonzero;fill:#7b83eb;fill-opacity:1"/>
  <use xlink:href="#j" mask="url(#k)"/>
  <use xlink:href="#l" mask="url(#m)"/>
  <use xlink:href="#n" mask="url(#o)"/>
  <use xlink:href="#p" mask="url(#q)"/>
  <use xlink:href="#r" mask="url(#s)"/>
  <use xlink:href="#t" mask="url(#u)"/>
  <use xlink:href="#v" mask="url(#w)"/>
  <use xlink:href="#x" mask="url(#y)"/>
  <path d="M1.027 5.398h10.23c.563 0 1.02.493 1.02 1.102v11c0 .61-.457 1.102-1.02 1.102H1.028c-.566 0-1.023-.493-1.023-1.102v-11c0-.61.457-1.102 1.023-1.102Zm0 0" style="stroke:none;fill-rule:nonzero;fill:url(#z)"/>
  <path d="M8.832 9.586H6.789v5.988H5.484V9.586H3.45v-1.16h5.383Zm0 0" style="stroke:none;fill-rule:nonzero;fill:#fff;fill-opacity:1"/>
</svg>
